<?xml version="1.0" encoding="UTF-8"?>
<!DOCTYPE svg PUBLIC "-//W3C//DTD SVG 1.1//EN" "http://www.w3.org/Graphics/SVG/1.1/DTD/svg11.dtd">
<svg xmlns="http://www.w3.org/2000/svg" version="1.1" width="512px" height="512px" style="shape-rendering:geometricPrecision; text-rendering:geometricPrecision; image-rendering:optimizeQuality; fill-rule:evenodd; clip-rule:evenodd" xmlns:xlink="http://www.w3.org/1999/xlink">
<g><path style="opacity:0.996" fill="#eaeeef" d="M 10.5,-0.5 C 167.833,-0.5 325.167,-0.5 482.5,-0.5C 488.294,2.46914 492.127,7.13581 494,13.5C 494.667,98.5 494.667,183.5 494,268.5C 492.167,275.667 487.667,280.167 480.5,282C 470.172,282.5 459.839,282.666 449.5,282.5C 436.492,209.99 393.826,166.157 321.5,151C 255.216,144.727 204.383,169.561 169,225.5C 159.171,243.488 152.671,262.488 149.5,282.5C 103.832,282.667 58.1655,282.5 12.5,282C 6.4634,279.998 2.13007,276.165 -0.5,270.5C -0.5,183.833 -0.5,97.1667 -0.5,10.5C 2.16667,5.83333 5.83333,2.16667 10.5,-0.5 Z"/></g>
<g><path style="opacity:1" fill="#464f5d" d="M 30.5,26.5 C 33.1873,26.3359 35.854,26.5026 38.5,27C 40.6667,27.8333 42.1667,29.3333 43,31.5C 43.6667,86.5 43.6667,141.5 43,196.5C 39.9598,202.368 35.4598,203.868 29.5,201C 28.2986,200.097 27.4652,198.931 27,197.5C 26.3333,141.833 26.3333,86.1667 27,30.5C 28.3756,29.2949 29.5423,27.9616 30.5,26.5 Z"/></g>
<g><path style="opacity:1" fill="#464f5d" d="M 66.5,26.5 C 71.2225,25.5531 75.0558,26.8864 78,30.5C 78.6667,86.1667 78.6667,141.833 78,197.5C 72.1709,204.476 66.8376,204.143 62,196.5C 61.3333,141.5 61.3333,86.5 62,31.5C 63.025,29.313 64.525,27.6464 66.5,26.5 Z"/></g>
<g><path style="opacity:1" fill="#49515f" d="M 101.5,26.5 C 107.489,25.0652 111.655,27.0652 114,32.5C 114.667,86.8333 114.667,141.167 114,195.5C 111.393,201.816 106.893,203.65 100.5,201C 98.5125,199.681 97.3459,197.848 97,195.5C 96.3333,140.833 96.3333,86.1667 97,31.5C 98.0591,29.3408 99.5591,27.6741 101.5,26.5 Z"/></g>
<g><path style="opacity:1" fill="#495260" d="M 136.5,26.5 C 139.187,26.3359 141.854,26.5026 144.5,27C 146.667,27.8333 148.167,29.3333 149,31.5C 149.667,86.5 149.667,141.5 149,196.5C 145.96,202.368 141.46,203.868 135.5,201C 133.959,199.421 132.792,197.587 132,195.5C 131.333,141.167 131.333,86.8333 132,32.5C 133.332,30.34 134.832,28.34 136.5,26.5 Z"/></g>
<g><path style="opacity:1" fill="#464f5d" d="M 171.5,26.5 C 176.447,25.6276 180.613,26.9609 184,30.5C 184.667,74.5 184.667,118.5 184,162.5C 178.159,169.394 172.825,169.061 168,161.5C 167.333,118.167 167.333,74.8333 168,31.5C 168.997,29.6769 170.164,28.0103 171.5,26.5 Z"/></g>
<g><path style="opacity:1" fill="#49515f" d="M 207.5,26.5 C 213.392,25.0733 217.559,27.0733 220,32.5C 220.667,69.1667 220.667,105.833 220,142.5C 217.777,148.25 213.61,150.416 207.5,149C 205.19,147.363 203.69,145.196 203,142.5C 202.333,105.5 202.333,68.5 203,31.5C 204.025,29.313 205.525,27.6464 207.5,26.5 Z"/></g>
<g><path style="opacity:1" fill="#49515f" d="M 242.5,26.5 C 245.187,26.3359 247.854,26.5026 250.5,27C 252.667,27.8333 254.167,29.3333 255,31.5C 255.667,62.8333 255.667,94.1667 255,125.5C 252.646,131.095 248.479,132.928 242.5,131C 240.622,129.457 239.122,127.624 238,125.5C 237.333,94.5 237.333,63.5 238,32.5C 239.332,30.34 240.832,28.34 242.5,26.5 Z"/></g>
<g><path style="opacity:1" fill="#464f5d" d="M 277.5,26.5 C 280.187,26.3359 282.854,26.5026 285.5,27C 287.667,27.8333 289.167,29.3333 290,31.5C 290.667,60.1667 290.667,88.8333 290,117.5C 288.601,121.238 285.934,122.904 282,122.5C 278.066,122.904 275.399,121.238 274,117.5C 273.333,88.5 273.333,59.5 274,30.5C 275.376,29.2949 276.542,27.9616 277.5,26.5 Z"/></g>
<g><path style="opacity:1" fill="#49525f" d="M 313.5,26.5 C 319.392,25.0733 323.559,27.0733 326,32.5C 326.667,60.5 326.667,88.5 326,116.5C 322.707,122.612 317.873,124.112 311.5,121C 310.107,119.829 309.273,118.329 309,116.5C 308.333,88.1667 308.333,59.8333 309,31.5C 310.025,29.313 311.525,27.6464 313.5,26.5 Z"/></g>
<g><path style="opacity:1" fill="#49515f" d="M 348.5,26.5 C 353.946,25.3394 358.113,27.0061 361,31.5C 361.667,62.8333 361.667,94.1667 361,125.5C 358.598,131.092 354.431,132.925 348.5,131C 346.622,129.457 345.122,127.624 344,125.5C 343.333,94.5 343.333,63.5 344,32.5C 345.332,30.34 346.832,28.34 348.5,26.5 Z"/></g>
<g><path style="opacity:1" fill="#464f5d" d="M 383.5,26.5 C 386.187,26.3359 388.854,26.5026 391.5,27C 393.667,27.8333 395.167,29.3333 396,31.5C 396.667,68.8333 396.667,106.167 396,143.5C 393.006,149.365 388.506,150.865 382.5,148C 381.299,147.097 380.465,145.931 380,144.5C 379.333,106.5 379.333,68.5 380,30.5C 381.376,29.2949 382.542,27.9616 383.5,26.5 Z"/></g>
<g><path style="opacity:1" fill="#495260" d="M 419.5,26.5 C 425.392,25.0733 429.559,27.0733 432,32.5C 432.667,78.1667 432.667,123.833 432,169.5C 428.707,175.612 423.873,177.112 417.5,174C 416.107,172.829 415.273,171.329 415,169.5C 414.333,123.5 414.333,77.5 415,31.5C 416.025,29.313 417.525,27.6464 419.5,26.5 Z"/></g>
<g><path style="opacity:1" fill="#49515f" d="M 454.5,26.5 C 459.946,25.3394 464.113,27.0061 467,31.5C 467.667,86.1667 467.667,140.833 467,195.5C 464.51,202.16 460.01,203.993 453.5,201C 451.513,199.681 450.346,197.848 450,195.5C 449.333,141.167 449.333,86.8333 450,32.5C 450.979,30.0324 452.479,28.0324 454.5,26.5 Z"/></g>
<g><path style="opacity:0.995" fill="#95a5a5" d="M 449.5,282.5 C 453.343,323.289 443.009,359.955 418.5,392.5C 410.167,401.5 401.5,410.167 392.5,418.5C 347.047,451.446 297.714,458.613 244.5,440C 190.042,416.526 158.542,375.36 150,316.5C 149.5,305.172 149.333,293.838 149.5,282.5C 152.671,262.488 159.171,243.488 169,225.5C 204.383,169.561 255.216,144.727 321.5,151C 393.826,166.157 436.492,209.99 449.5,282.5 Z"/></g>
<g><path style="opacity:1" fill="#afd2ef" d="M 361.5,203.5 C 380.223,227.969 384.723,254.969 375,284.5C 363.7,319.95 341.866,346.783 309.5,365C 285.602,378.311 260.269,382.311 233.5,377C 222.469,373.652 212.469,368.485 203.5,361.5C 192.707,345.963 186.54,328.63 185,309.5C 183.339,258.305 204.839,220.472 249.5,196C 281.191,181.416 313.191,180.749 345.5,194C 351.392,196.437 356.726,199.604 361.5,203.5 Z"/></g>
<g><path style="opacity:1" fill="#90b9e0" d="M 361.5,203.5 C 395.474,225.758 413.141,257.424 414.5,298.5C 411.687,355.808 383.02,393.308 328.5,411C 283.278,420.702 244.778,408.868 213,375.5C 209.566,370.949 206.399,366.282 203.5,361.5C 212.469,368.485 222.469,373.652 233.5,377C 260.269,382.311 285.602,378.311 309.5,365C 341.866,346.783 363.7,319.95 375,284.5C 384.723,254.969 380.223,227.969 361.5,203.5 Z"/></g>
<g><path style="opacity:1" fill="#47505e" d="M 31.5,220.5 C 36.635,219.426 40.4683,221.093 43,225.5C 43.6667,233.5 43.6667,241.5 43,249.5C 39.9598,255.368 35.4598,256.868 29.5,254C 28.2986,253.097 27.4652,251.931 27,250.5C 26.3333,241.833 26.3333,233.167 27,224.5C 28.3968,222.93 29.8968,221.596 31.5,220.5 Z"/></g>
<g><path style="opacity:1" fill="#47505e" d="M 66.5,220.5 C 71.635,219.426 75.4683,221.093 78,225.5C 78.6667,233.833 78.6667,242.167 78,250.5C 72.1709,257.476 66.8376,257.143 62,249.5C 61.3333,241.5 61.3333,233.5 62,225.5C 63.025,223.313 64.525,221.646 66.5,220.5 Z"/></g>
<g><path style="opacity:1" fill="#495260" d="M 101.5,220.5 C 107.204,219.436 111.371,221.436 114,226.5C 114.667,233.833 114.667,241.167 114,248.5C 111.393,254.816 106.893,256.65 100.5,254C 98.5125,252.681 97.3459,250.848 97,248.5C 96.3333,240.833 96.3333,233.167 97,225.5C 98.7073,223.963 100.207,222.296 101.5,220.5 Z"/></g>
<g><path style="opacity:0.979" fill="#7f8c8d" d="M 418.5,392.5 C 427.5,402.167 436.833,411.5 446.5,420.5C 438.167,429.5 429.5,438.167 420.5,446.5C 411.5,436.833 402.167,427.5 392.5,418.5C 401.5,410.167 410.167,401.5 418.5,392.5 Z"/></g>
<g><path style="opacity:0.991" fill="#efc319" d="M 511.5,477.5 C 511.5,482.5 511.5,487.5 511.5,492.5C 508.167,501.833 501.833,508.167 492.5,511.5C 487.5,511.5 482.5,511.5 477.5,511.5C 474.1,509.963 470.767,508.13 467.5,506C 451.667,490.167 435.833,474.333 420,458.5C 417.946,454.387 418.113,450.387 420.5,446.5C 429.5,438.167 438.167,429.5 446.5,420.5C 450.387,418.113 454.387,417.946 458.5,420C 474.333,435.833 490.167,451.667 506,467.5C 508.13,470.767 509.963,474.1 511.5,477.5 Z"/></g>
</svg>
